<?xml version="1.0" standalone="no"?>
<!DOCTYPE svg PUBLIC "-//W3C//DTD SVG 20010904//EN"
 "http://www.w3.org/TR/2001/REC-SVG-20010904/DTD/svg10.dtd">
<svg version="1.0" xmlns="http://www.w3.org/2000/svg"
 width="500.000000pt" height="500.000000pt" viewBox="0 0 500.000000 500.000000"
 preserveAspectRatio="xMidYMid meet">
<metadata>
Created by potrace 1.14, written by Peter Selinger 2001-2017
</metadata>
<g transform="translate(0.000000,500.000000) scale(0.100000,-0.100000)"
fill="#000000" stroke="none">
<path d="M3668 4932 c-18 -2 -38 -16 -55 -40 -16 -20 -35 -42 -43 -49 -8 -7
-11 -13 -7 -13 5 0 1 -12 -7 -27 -42 -78 -64 -148 -68 -215 -1 -20 -5 -35 -8
-33 -8 5 3 -179 11 -195 1 -3 3 -9 4 -15 0 -5 5 -20 9 -33 5 -15 2 -27 -8 -37
-8 -9 -30 -36 -47 -60 -18 -25 -36 -45 -40 -45 -4 0 -10 -8 -13 -17 -3 -10
-19 -32 -36 -50 -16 -18 -30 -36 -30 -42 0 -5 -4 -11 -8 -13 -4 -1 -23 -23
-42 -48 -19 -24 -39 -50 -45 -56 -5 -6 -21 -26 -35 -44 -14 -18 -31 -39 -37
-46 -7 -7 -13 -17 -13 -23 0 -7 -8 -7 -26 -1 -14 6 -30 8 -35 4 -5 -3 -9 -1
-9 4 0 16 -119 32 -195 27 -73 -5 -103 -9 -145 -20 -14 -3 -30 -7 -37 -9 -7
-1 -16 -5 -19 -9 -4 -4 -16 -7 -26 -7 -10 0 -18 -4 -18 -10 0 -5 -7 -10 -16
-10 -21 0 -122 -69 -167 -113 -86 -86 -106 -178 -65 -294 12 -35 25 -63 30
-63 4 0 8 -9 8 -20 0 -11 5 -20 10 -20 6 0 10 -7 10 -15 0 -8 4 -15 8 -15 5 0
13 -9 18 -19 13 -27 76 -101 160 -187 40 -40 69 -75 66 -78 -3 -3 0 -6 6 -6 6
0 22 -11 36 -23 25 -24 25 -24 6 -45 -11 -12 -20 -27 -20 -35 0 -8 -9 -24 -20
-37 -11 -13 -20 -29 -20 -37 0 -7 -5 -13 -11 -13 -5 0 -8 -4 -4 -9 3 -6 -3
-14 -12 -20 -10 -5 -16 -11 -15 -13 4 -4 -20 -61 -29 -68 -5 -5 -47 -80 -95
-170 -11 -19 -22 -36 -26 -38 -5 -2 -8 -8 -8 -12 0 -5 -16 -37 -37 -71 -20
-35 -36 -69 -36 -76 0 -6 -4 -10 -9 -7 -4 3 -8 -2 -8 -10 0 -9 -4 -16 -10 -16
-11 0 -22 55 -24 125 -1 30 -4 56 -7 59 -3 4 -6 0 -6 -7 0 -6 -4 -25 -8 -42
-3 -16 -7 -36 -7 -42 -1 -7 -6 -13 -11 -13 -6 0 -8 -3 -4 -6 8 -9 -14 -65 -36
-91 l-20 -23 -46 33 c-25 18 -54 36 -63 40 -10 3 -18 11 -18 17 0 6 -4 9 -9 5
-5 -3 -12 -1 -16 5 -3 5 -38 31 -78 56 -40 26 -74 50 -77 54 -3 4 -15 10 -27
14 -13 4 -23 11 -23 14 0 4 -16 16 -35 26 -19 11 -35 23 -35 28 0 4 -6 8 -14
8 -7 0 -19 7 -26 15 -7 9 -27 22 -45 31 -18 8 -41 23 -51 33 -11 9 -27 20 -36
24 -10 3 -18 11 -18 17 0 6 -4 9 -8 6 -5 -3 -25 9 -45 25 -20 17 -37 28 -37
24 0 -4 -7 0 -15 7 -28 26 -40 34 -57 41 -10 3 -18 11 -18 17 0 6 -4 9 -8 6
-5 -3 -18 4 -30 14 -12 11 -24 20 -27 20 -8 0 -68 43 -77 55 -4 6 -8 6 -8 1 0
-5 -8 -3 -17 5 -82 67 -276 119 -420 112 -68 -3 -118 -8 -118 -13 0 -1 -11 -3
-25 -5 -48 -6 -190 -58 -212 -76 -11 -11 -26 -19 -33 -19 -7 0 -20 -9 -30 -20
-10 -11 -22 -20 -26 -20 -5 0 -41 -31 -80 -70 -40 -38 -68 -70 -63 -70 5 0 3
-4 -4 -8 -17 -11 -82 -113 -82 -129 0 -7 -4 -13 -10 -13 -5 0 -9 -3 -8 -7 0
-5 -2 -17 -6 -28 -30 -79 -36 -98 -36 -120 0 -14 -3 -25 -7 -25 -8 0 -9 -8
-13 -125 -3 -85 6 -146 36 -260 3 -11 6 -24 7 -30 6 -24 62 -134 90 -175 50
-73 226 -236 251 -231 3 0 18 -11 32 -24 15 -14 33 -25 40 -25 8 0 14 -4 14
-10 0 -5 7 -10 15 -10 8 0 15 -4 15 -10 0 -5 7 -10 16 -10 9 0 12 -5 8 -12 -4
-6 -3 -8 3 -5 6 4 23 -4 39 -18 15 -13 43 -32 61 -42 18 -10 33 -21 33 -25 0
-5 4 -8 8 -8 5 0 46 -25 91 -55 45 -30 87 -55 92 -55 6 0 7 -5 4 -10 -3 -6 -1
-10 5 -10 6 0 37 -17 68 -39 31 -21 61 -38 65 -37 5 0 13 -7 18 -17 6 -9 14
-15 20 -12 5 4 9 2 9 -3 0 -11 71 -57 83 -54 4 1 7 -2 7 -7 0 -8 55 -45 73
-49 4 -1 17 -11 29 -22 12 -11 28 -20 35 -20 7 0 13 -4 13 -8 0 -7 44 -34 60
-36 17 -3 80 -47 80 -57 0 -7 3 -10 6 -7 3 4 13 -1 23 -10 9 -9 30 -26 45 -37
16 -11 34 -26 41 -33 8 -6 17 -12 20 -12 7 0 92 -58 112 -77 7 -6 22 -15 33
-18 11 -3 20 -11 20 -17 0 -6 3 -9 6 -5 3 3 11 2 18 -3 56 -46 75 -60 80 -60
7 0 126 -80 144 -97 6 -6 21 -15 32 -18 11 -3 20 -11 20 -16 0 -5 6 -9 14 -9
8 0 16 -3 18 -7 2 -5 17 -16 33 -25 23 -12 35 -14 49 -6 13 7 26 7 45 -3 14
-7 29 -12 34 -11 4 1 7 -2 7 -7 0 -5 15 -19 34 -30 25 -16 33 -27 31 -46 -2
-14 1 -25 6 -25 5 0 9 -7 9 -16 0 -8 5 -12 10 -9 6 3 10 1 10 -4 0 -6 7 -11
15 -11 8 0 15 -4 15 -10 0 -5 7 -10 15 -10 8 0 15 -4 15 -9 0 -5 9 -13 20 -16
11 -3 26 -12 32 -18 7 -7 38 -24 68 -38 109 -51 126 -57 178 -62 12 -1 22 -5
22 -8 0 -7 6 -8 116 -12 49 -2 97 -7 105 -12 8 -4 11 -4 6 0 -4 5 32 17 80 27
48 10 95 21 103 25 8 3 17 7 20 8 3 1 23 10 45 20 22 10 42 19 45 19 10 3 66
40 88 60 12 11 22 17 22 14 0 -4 27 20 60 53 33 32 60 63 60 69 0 5 3 10 8 10
4 0 18 17 32 38 14 20 29 40 33 43 5 3 8 9 8 13 -1 3 5 19 12 34 30 58 67 170
75 225 13 81 7 221 -12 297 -9 36 -19 74 -21 85 -7 30 -88 185 -97 185 -4 0
-8 4 -8 10 0 16 -45 66 -129 143 -22 21 -41 35 -41 31 0 -4 -9 3 -19 15 -11
12 -21 21 -23 20 -6 -5 -73 41 -109 74 -10 9 -19 14 -19 11 0 -3 -29 15 -65
40 -36 25 -70 46 -75 46 -6 0 -10 5 -10 10 0 6 -7 10 -15 10 -8 0 -15 5 -15
10 0 6 -6 10 -14 10 -8 0 -16 3 -18 8 -4 9 -245 172 -255 172 -5 0 -23 14 -42
30 -18 17 -38 30 -43 30 -5 0 -21 11 -36 25 -15 14 -37 28 -49 31 -13 4 -23 9
-23 13 0 4 -11 14 -25 21 -37 20 -31 30 18 31 l42 1 -62 19 c-35 11 -62 24
-60 30 3 17 61 75 70 71 4 -2 7 4 7 13 0 9 5 13 10 10 6 -3 10 -2 10 3 0 5 7
9 15 9 8 0 12 -4 9 -9 -3 -4 -1 -8 5 -8 5 0 8 -9 6 -20 -2 -11 0 -20 5 -20 5
0 7 -8 4 -17 -5 -15 -4 -15 4 -3 6 8 9 17 6 21 -6 11 65 81 76 74 5 -3 11 -1
15 5 4 6 11 7 17 4 7 -4 8 -2 4 5 -4 6 -11 9 -15 6 -5 -2 -21 7 -36 21 l-28
26 29 23 c16 12 54 46 84 75 30 28 83 78 118 111 34 32 67 59 73 59 5 0 8 4 4
9 -3 5 8 18 25 27 16 10 33 26 36 36 3 10 9 16 14 13 5 -3 10 -1 12 5 2 6 33
-10 70 -35 37 -25 72 -45 78 -45 5 0 10 -4 10 -9 0 -5 8 -11 18 -14 9 -3 31
-13 47 -23 17 -9 38 -21 48 -26 9 -4 25 -12 35 -17 9 -5 31 -14 47 -21 17 -7
38 -16 48 -22 10 -5 22 -6 27 -3 6 4 10 2 10 -4 0 -5 8 -10 18 -9 9 0 31 -4
47 -9 29 -9 123 -10 157 -1 33 8 98 43 98 53 0 6 9 17 20 25 11 8 20 20 20 27
0 7 4 13 9 13 5 0 13 10 17 23 4 12 11 25 17 28 5 4 11 19 12 33 2 15 8 32 13
39 6 7 11 15 11 20 1 4 1 8 2 10 2 9 11 65 12 80 1 9 5 17 10 17 5 0 4 6 -2
14 -8 10 -9 16 -1 21 6 4 7 12 1 23 -5 9 -5 26 0 39 4 12 4 25 -1 28 -4 3 -7
23 -6 45 2 22 -1 40 -6 40 -5 0 -7 4 -4 8 5 9 -13 75 -35 127 -7 17 -13 34
-13 38 -1 5 -10 15 -20 23 -11 8 -17 14 -13 14 4 0 3 9 -3 20 -11 21 -8 28 34
70 11 11 16 20 12 20 -4 0 6 14 23 31 17 17 31 34 31 37 0 4 10 18 23 32 12
14 38 45 57 70 19 25 37 47 40 50 3 3 19 23 35 45 39 52 56 74 77 96 9 9 14
20 10 23 -6 7 -6 7 82 12 69 3 98 7 146 19 37 9 42 11 73 23 16 7 32 12 37 12
5 0 10 3 12 8 2 4 21 16 43 27 43 22 71 42 121 92 18 17 35 28 38 25 3 -3 6 2
6 11 0 9 5 17 10 17 6 0 10 6 10 14 0 8 5 16 10 18 16 5 14 47 -6 123 -9 32
-58 150 -65 155 -3 3 -13 19 -22 35 -8 17 -25 40 -37 53 -11 12 -18 22 -16 22
8 0 -40 53 -125 139 -91 90 -115 111 -131 111 -6 0 -8 3 -5 7 4 3 -10 18 -31
31 -20 14 -39 28 -42 31 -12 15 -159 111 -169 111 -6 0 -11 3 -11 8 0 4 -25
18 -55 32 -30 14 -55 28 -55 32 0 4 -7 5 -15 2 -8 -4 -15 -1 -15 6 0 6 -4 8
-10 5 -5 -3 -10 -1 -10 4 0 6 -13 11 -28 11 -15 0 -33 5 -38 10 -6 6 -25 12
-42 13 -18 1 -32 4 -32 7 0 10 -151 18 -202 12z m-2636 -2495 c32 -17 58 -34
58 -39 0 -5 5 -6 10 -3 6 3 10 2 10 -2 0 -5 16 -17 35 -27 19 -11 35 -23 35
-28 0 -4 4 -8 9 -8 12 0 225 -142 229 -152 2 -5 8 -8 12 -8 5 0 30 -15 56 -32
25 -18 53 -37 62 -43 49 -30 60 -42 51 -56 -5 -8 -9 -11 -9 -7 0 15 -110 -103
-153 -164 -43 -63 -85 -144 -93 -182 -2 -11 -7 -22 -12 -25 -5 -3 -8 -14 -6
-24 2 -14 -2 -16 -19 -11 -12 4 -27 13 -35 21 -8 7 -28 21 -45 30 -18 9 -34
19 -37 22 -8 10 -128 91 -135 91 -3 0 -15 9 -27 20 -12 10 -25 17 -30 14 -4
-3 -8 -1 -8 3 0 5 -30 29 -67 53 -38 24 -74 50 -81 57 -7 7 -20 13 -28 13 -8
0 -14 3 -14 8 -1 4 -23 23 -50 42 -57 41 -102 121 -104 185 -1 22 -5 43 -11
47 -6 5 -6 8 1 8 6 0 11 6 12 13 3 51 26 92 81 147 78 77 196 92 303 37z
m1033 -768 c25 -79 -14 -209 -78 -259 -11 -8 -27 -22 -37 -32 -10 -9 -21 -14
-24 -11 -3 3 -12 0 -21 -7 -8 -7 -29 -14 -46 -15 -38 -3 -47 17 -44 95 5 131
98 229 237 249 4 1 10 -8 13 -20z m515 -270 c0 -5 5 -7 10 -4 6 3 10 1 10 -4
0 -6 7 -11 15 -11 8 0 15 -5 15 -11 0 -5 5 -7 10 -4 6 3 10 3 10 -2 0 -4 38
-33 85 -62 47 -30 85 -58 85 -63 0 -4 6 -8 13 -8 7 0 27 -10 44 -22 17 -13 41
-30 53 -38 12 -8 28 -20 35 -27 7 -7 15 -9 19 -6 3 4 6 1 6 -5 0 -6 9 -14 20
-17 11 -3 26 -12 32 -18 7 -7 33 -25 58 -42 61 -40 86 -66 110 -113 37 -71 43
-136 19 -204 -19 -54 -76 -131 -90 -122 -5 3 -9 0 -9 -6 0 -10 -82 -51 -98
-49 -4 1 -9 0 -12 -1 -16 -6 -72 -5 -76 2 -3 5 -10 6 -15 3 -12 -8 -99 36
-174 89 -33 23 -68 45 -78 49 -9 3 -17 11 -17 17 0 5 -6 10 -13 10 -7 0 -23 9
-35 20 -12 11 -24 20 -26 20 -6 0 -218 140 -226 149 -3 3 -18 13 -33 21 -46
23 -49 42 -14 69 27 20 70 68 132 144 40 50 107 196 114 247 1 13 21 13 21 -1z"/>
<path d="M2110 2560 c0 -5 5 -10 10 -10 6 0 17 -14 24 -32 13 -29 14 -30 20
-10 4 12 17 27 28 33 17 9 18 13 7 20 -19 12 -89 11 -89 -1z"/>
</g>
</svg>
